<svg width="48" height="48" viewBox="0 0 48 48" fill="none" xmlns="http://www.w3.org/2000/svg">
<path d="M12.3909 19.1932C12.3909 23.6406 14.1576 27.9059 17.3024 31.0507C20.4473 34.1956 24.7126 35.9623 29.16 35.9623C33.6075 35.9623 37.8728 34.1956 41.0176 31.0507C44.1624 27.9059 45.9292 23.6406 45.9292 19.1932C45.9292 14.7457 44.1624 10.4804 41.0176 7.33558C37.8728 4.19075 33.6075 2.42401 29.16 2.42401C24.7126 2.42401 20.4473 4.19075 17.3024 7.33558C14.1576 10.4804 12.3909 14.7457 12.3909 19.1932Z" stroke="#3E3E3E" stroke-width="3.43" stroke-linecap="round" stroke-linejoin="round"/>
<path d="M4.12458 21.0309C2.43034 24.1522 1.77104 27.7309 2.24173 31.251C2.71243 34.7712 4.2888 38.051 6.74359 40.6175C9.19837 43.184 12.4048 44.9047 15.9005 45.5315C19.3962 46.1583 23.0007 45.6589 26.1943 44.1052" stroke="#3E3E3E" stroke-width="3.43" stroke-linecap="round" stroke-linejoin="round"/>
<path d="M26 10L26 29" stroke="#3E3E3E" stroke-width="3.43" stroke-linecap="round"/>
<path d="M33 25H23.5" stroke="#3E3E3E" stroke-width="3.43" stroke-linecap="round"/>
<path d="M26.1818 10H31C33.7614 10 36 12.2386 36 15V15C36 17.7614 33.7614 20 31 20H23.5" stroke="#3E3E3E" stroke-width="3.43" stroke-linecap="round"/>
</svg>
