<svg width="48" height="48" viewBox="0 0 48 48" fill="none" xmlns="http://www.w3.org/2000/svg">
<path d="M40.9813 18.7952C40.9813 23.3018 39.1911 27.6238 36.0045 30.8104C32.8179 33.997 28.4959 35.7872 23.9893 35.7872C19.4828 35.7872 15.1608 33.997 11.9742 30.8104C8.78754 27.6238 6.99731 23.3018 6.99731 18.7952C6.99731 14.2887 8.78754 9.96668 11.9742 6.78006C15.1608 3.59345 19.4828 1.80322 23.9893 1.80322C28.4959 1.80322 32.8179 3.59345 36.0045 6.78006C39.1911 9.96668 40.9813 14.2887 40.9813 18.7952Z" stroke="#3E3E3E" stroke-width="3.43" stroke-linecap="round" stroke-linejoin="round"/>
<path d="M24.6857 9.56906L27.0274 14.2799C27.0794 14.3988 27.1621 14.5017 27.2669 14.5782C27.3717 14.6547 27.4949 14.702 27.6239 14.7153L32.8251 15.5039C32.9739 15.5229 33.1142 15.584 33.2296 15.68C33.3449 15.776 33.4304 15.9029 33.4762 16.0459C33.5219 16.1888 33.5259 16.3418 33.4877 16.4869C33.4495 16.632 33.3707 16.7632 33.2605 16.8651L29.4171 20.5131C29.36 20.622 29.3302 20.7432 29.3302 20.8662C29.3302 20.9892 29.36 21.1104 29.4171 21.2193L30.1542 26.3896C30.1862 26.5395 30.1739 26.6954 30.1187 26.8383C30.0635 26.9812 29.9679 27.105 29.8435 27.1944C29.7191 27.2839 29.5714 27.3352 29.4183 27.3421C29.2653 27.3489 29.1135 27.311 28.9817 27.2331L24.3531 24.7851C24.2335 24.7311 24.1037 24.7032 23.9725 24.7032C23.8413 24.7032 23.7116 24.7311 23.5919 24.7851L18.9634 27.2331C18.8316 27.3089 18.6807 27.3451 18.5289 27.3372C18.3771 27.3293 18.2307 27.2777 18.1076 27.1886C17.9844 27.0995 17.8896 26.9766 17.8346 26.8349C17.7796 26.6931 17.7668 26.5385 17.7977 26.3896L18.6685 21.2193C18.7057 21.0994 18.7126 20.9722 18.6887 20.849C18.6647 20.7257 18.6107 20.6103 18.5314 20.5131L14.6948 16.8342C14.5917 16.7311 14.5192 16.6014 14.4854 16.4596C14.4516 16.3177 14.4577 16.1693 14.5032 16.0307C14.5487 15.8922 14.6317 15.769 14.743 15.6747C14.8543 15.5805 14.9895 15.519 15.1337 15.4971L20.3314 14.7428C20.4604 14.7294 20.5836 14.6821 20.6884 14.6056C20.7932 14.5291 20.8759 14.4262 20.9279 14.3073L23.2697 9.59649C23.332 9.46278 23.4306 9.34924 23.5542 9.26876C23.6779 9.18829 23.8216 9.14412 23.9691 9.14126C24.1166 9.1384 24.2619 9.17698 24.3886 9.2526C24.5153 9.32823 24.6182 9.43786 24.6857 9.56906Z" stroke="#3E3E3E" stroke-width="3.43" stroke-linecap="round" stroke-linejoin="round"/>
<path d="M9.27044 27.1301L1.71387 40.2204L9.8773 38.0329L12.0682 46.1964L18.6236 34.8409" stroke="#3E3E3E" stroke-width="3.43" stroke-linecap="round" stroke-linejoin="round"/>
<path d="M38.7291 27.1299L46.2857 40.2202L38.1188 38.0327L35.9314 46.1962L29.376 34.8407" stroke="#3E3E3E" stroke-width="3.43" stroke-linecap="round" stroke-linejoin="round"/>
</svg>
