<svg width="48" height="45" viewBox="0 0 48 45" fill="none" xmlns="http://www.w3.org/2000/svg">
<path d="M17.1427 19.2859C19.416 19.2859 21.5962 18.3829 23.2036 16.7754C24.8111 15.168 25.7141 12.9878 25.7141 10.7145C25.7141 8.44121 24.8111 6.26103 23.2036 4.65358C21.5962 3.04612 19.416 2.14307 17.1427 2.14307C14.8694 2.14307 12.6893 3.04612 11.0818 4.65358C9.47435 6.26103 8.57129 8.44121 8.57129 10.7145C8.57129 12.9878 9.47435 15.168 11.0818 16.7754C12.6893 18.3829 14.8694 19.2859 17.1427 19.2859Z" stroke="#3E3E3E" stroke-width="3.43" stroke-linecap="round" stroke-linejoin="round"/>
<path d="M1.71387 43.2859H32.571V41.4276C32.549 39.3549 32.1105 37.3077 31.2816 35.4078C30.4526 33.5079 29.2501 31.794 27.7455 30.3682C26.2409 28.9423 24.465 27.8335 22.5234 27.1076C20.5817 26.3818 18.514 26.0538 16.443 26.1431C12.5011 26.3301 8.77992 28.0172 6.04156 30.8588C3.3032 33.7005 1.75493 37.4815 1.71387 41.4276V43.2859Z" stroke="#3E3E3E" stroke-width="3.43" stroke-linecap="round" stroke-linejoin="round"/>
<path d="M30.8564 19.2859C33.1297 19.2859 35.3099 18.3829 36.9174 16.7754C38.5248 15.168 39.4279 12.9878 39.4279 10.7145C39.4279 8.44121 38.5248 6.26103 36.9174 4.65358C35.3099 3.04612 33.1297 2.14307 30.8564 2.14307" stroke="#3E3E3E" stroke-width="3.43" stroke-linecap="round" stroke-linejoin="round"/>
<path d="M39.4281 43.2859H46.2853V41.4276C46.2487 37.9565 45.0452 34.5986 42.8685 31.8945C40.6918 29.1904 37.6685 27.2974 34.2853 26.5202" stroke="#3E3E3E" stroke-width="3.43" stroke-linecap="round" stroke-linejoin="round"/>
</svg>
