<svg width="48" height="48" viewBox="0 0 48 48" fill="none" xmlns="http://www.w3.org/2000/svg">
<path d="M2.83579 22.3987L17.1809 17.177L22.3992 2.8353C22.5189 2.50675 22.7367 2.22297 23.0231 2.02244C23.3095 1.82192 23.6507 1.71436 24.0004 1.71436C24.35 1.71436 24.6912 1.82192 24.9776 2.02244C25.2641 2.22297 25.4819 2.50675 25.6015 2.8353L30.8232 17.1804L45.1684 22.3987C45.4969 22.5184 45.7807 22.7362 45.9812 23.0226C46.1817 23.309 46.2893 23.6502 46.2893 23.9999C46.2893 24.3495 46.1817 24.6907 45.9812 24.9771C45.7807 25.2636 45.4969 25.4814 45.1684 25.601L30.8198 30.8227L25.6015 45.1679C25.4819 45.4964 25.2641 45.7802 24.9776 45.9807C24.6912 46.1813 24.35 46.2888 24.0004 46.2888C23.6507 46.2888 23.3095 46.1813 23.0231 45.9807C22.7367 45.7802 22.5189 45.4964 22.3992 45.1679L17.1775 30.8193L2.83579 25.601C2.50724 25.4814 2.22346 25.2636 2.02293 24.9771C1.8224 24.6907 1.71484 24.3495 1.71484 23.9999C1.71484 23.6502 1.8224 23.309 2.02293 23.0226C2.22346 22.7362 2.50724 22.5184 2.83579 22.3987Z" stroke="#3E3E3E" stroke-width="3.43" stroke-linecap="round" stroke-linejoin="round"/>
</svg>
